<?xml version="1.0" encoding="UTF-8"?>
<svg width="83px" height="14px" viewBox="0 0 83 14" version="1.1" xmlns="http://www.w3.org/2000/svg" xmlns:xlink="http://www.w3.org/1999/xlink">
    <!-- Generator: Sketch 55.2 (78181) - https://sketchapp.com -->
    <title>logo</title>
    <desc>Created with Sketch.</desc>
    <defs>
        <linearGradient x1="65.5871429%" y1="92.1889694%" x2="15.9707143%" y2="38.831398%" id="linearGradient-1">
            <stop stop-color="#0E67DC" offset="0%"></stop>
            <stop stop-color="#2AA5FF" offset="100%"></stop>
        </linearGradient>
        <linearGradient x1="70.4344496%" y1="80.027156%" x2="33.0158512%" y2="4.81834862%" id="linearGradient-2">
            <stop stop-color="#41D3BD" offset="0%"></stop>
            <stop stop-color="#90FFFF" offset="99.96%"></stop>
        </linearGradient>
    </defs>
    <g id="Page-1" stroke="none" stroke-width="1" fill="none" fill-rule="evenodd">
        <g id="logo" fill-rule="nonzero">
            <g id="Group">
                <path d="M12,10.9 L3.3,10.9 L3.3,8 L5.8,5.5 L7.8,7.5 L9.1,6.2 L9.9,5.4 L7.8,3.3 L6.4,2 C6.2,1.8 6,1.8 5.8,1.8 C5.6,1.8 5.4,1.9 5.2,2 L0.8,6.4 C0.4,6.8 0.2,7.2 0.2,7.8 L0.2,13.2 C0.2,13.7 0.6,14 1,14 L13.8,14 L14.2,14 L14.2,10.9 L12,10.9 L12,10.9 Z" id="Path" fill="url(#linearGradient-1)"></path>
                <path d="M17.3,6.8 L17.3,13.1 C17.3,13.6 16.9,13.9 16.5,13.9 L14.4,13.9 L14.4,10.8 L14.4,7.2 L11.3,4.1 L10,5.4 L7.9,3.3 L10.7,0.5 C11,0.2 11.6,0.2 11.9,0.5 L16.8,5.4 C17.1,5.8 17.3,6.3 17.3,6.8 Z" id="Path" fill="url(#linearGradient-2)"></path>
            </g>
            <g id="Group" transform="translate(20.000000, 0.000000)" fill="#FFFFFF">
                <path d="M8.7,10.5 L3.3,10.5 L2.1,13.7 L0,13.7 L4.9,0.3 L6.9,0.3 L7,0.3 L12,13.7 L9.8,13.7 L8.7,10.5 Z M8.1,8.7 L6,2.9 L3.9,8.8 L8.1,8.8 L8.1,8.7 Z" id="Shape"></path>
                <polygon id="Path" points="21.1 4.6 17.3 13.7 15.4 13.7 11.8 4.6 13.9 4.6 16.4 11.3 19 4.6"></polygon>
                <path d="M30.5,9.9 L23.4,9.9 C23.5,10.7 23.8,11.3 24.2,11.6 C24.7,12 25.3,12.2 26,12.2 C26.6,12.2 27.1,12.1 27.5,11.8 C27.9,11.5 28.2,11.2 28.5,10.7 L30.1,11.4 C29.8,12.2 29.2,12.8 28.5,13.3 C27.8,13.7 26.9,14 26,14 C25.3,14 24.7,13.9 24.2,13.7 C23.7,13.5 23.2,13.1 22.8,12.7 C22.4,12.3 22.1,11.8 21.9,11.2 C21.7,10.6 21.6,10 21.6,9.3 C21.6,8.6 21.7,8 21.9,7.4 C22.1,6.8 22.4,6.3 22.8,5.9 C23.2,5.5 23.7,5.1 24.2,4.9 C24.8,4.7 25.4,4.5 26,4.5 C26.7,4.5 27.3,4.6 27.8,4.8 C28.3,5 28.8,5.4 29.2,5.8 C29.6,6.2 29.9,6.7 30.1,7.3 C30.3,7.9 30.4,8.5 30.4,9.3 L30.4,9.9 L30.5,9.9 Z M28.5,8.5 C28.5,7.7 28.2,7.1 27.8,6.6 C27.4,6.2 26.8,6 26,6 C25.2,6 24.7,6.2 24.2,6.6 C23.8,7 23.5,7.7 23.4,8.5 L28.5,8.5 Z" id="Shape"></path>
                <path d="M40.8,8.1 L40.8,13.7 L38.8,13.7 L38.8,8.5 C38.8,7.6 38.6,7 38.2,6.7 C37.8,6.4 37.3,6.2 36.7,6.2 C36.4,6.2 36.1,6.3 35.8,6.4 C35.5,6.5 35.3,6.7 35.1,6.9 C34.9,7.1 34.7,7.4 34.6,7.7 C34.5,8 34.4,8.4 34.4,8.8 L34.4,13.9 L32.4,13.9 L32.4,4.6 L34.2,4.6 L34.3,5.7 C34.6,5.3 34.9,5 35.4,4.7 C35.9,4.5 36.5,4.3 37.1,4.3 C38.2,4.3 39.1,4.6 39.8,5.3 C40.4,6 40.8,6.9 40.8,8.1 Z" id="Path"></path>
                <path d="M49.7,13.7 C49.6,13.4 49.6,13 49.5,12.6 C49.2,13 48.9,13.4 48.4,13.6 C47.9,13.8 47.4,13.9 46.7,13.9 C45.7,13.9 44.8,13.6 44.1,13 C43.4,12.4 43,11.4 43,10.1 L43,4.6 L45,4.6 L45,9.8 C45,10.7 45.2,11.3 45.6,11.7 C46,12.1 46.5,12.2 47.1,12.2 C47.4,12.2 47.7,12.1 48,12 C48.3,11.9 48.5,11.7 48.7,11.5 C48.9,11.3 49.1,11 49.2,10.7 C49.3,10.4 49.4,10 49.4,9.6 L49.4,4.6 L51.4,4.6 L51.4,12 C51.4,12.2 51.4,12.5 51.4,12.9 C51.4,13.2 51.5,13.5 51.5,13.7 L49.7,13.7 Z" id="Path"></path>
                <path d="M62.2,9.9 L55.1,9.9 C55.2,10.7 55.5,11.3 55.9,11.6 C56.4,12 57,12.2 57.7,12.2 C58.3,12.2 58.8,12.1 59.2,11.8 C59.6,11.5 59.9,11.2 60.2,10.7 L61.8,11.4 C61.5,12.2 60.9,12.8 60.2,13.3 C59.5,13.7 58.6,14 57.7,14 C57,14 56.4,13.9 55.9,13.7 C55.4,13.5 54.9,13.1 54.5,12.7 C54.1,12.3 53.8,11.8 53.6,11.2 C53.4,10.6 53.3,10 53.3,9.3 C53.3,8.6 53.4,8 53.6,7.4 C53.8,6.8 54.1,6.3 54.5,5.9 C54.9,5.5 55.4,5.1 55.9,4.9 C56.5,4.7 57.1,4.5 57.7,4.5 C58.4,4.5 59,4.6 59.5,4.8 C60,5 60.5,5.4 60.9,5.8 C61.3,6.2 61.6,6.7 61.8,7.3 C62,7.9 62.1,8.5 62.1,9.3 L62.1,9.9 L62.2,9.9 Z M60.2,8.5 C60.2,7.7 59.9,7.1 59.5,6.6 C59.1,6.2 58.5,6 57.7,6 C57,6 56.4,6.2 56,6.7 C55.6,7.1 55.3,7.8 55.2,8.6 L60.2,8.6 L60.2,8.5 Z" id="Shape"></path>
            </g>
        </g>
    </g>
</svg>