<?xml version="1.0" encoding="UTF-8"?>
<svg width="144px" height="156px" viewBox="0 0 144 156" version="1.1" xmlns="http://www.w3.org/2000/svg" xmlns:xlink="http://www.w3.org/1999/xlink">
    <!-- Generator: Sketch 55.2 (78181) - https://sketchapp.com -->
    <title>Fill 1</title>
    <desc>Created with Sketch.</desc>
    <g id="Page-1" stroke="none" stroke-width="1" fill="none" fill-rule="evenodd">
        <path d="M144,156 C143.908989,155.819699 143.810569,155.643873 143.7185,155.464362 L143.814538,155.463046 L74.8470137,0 L23.7579205,111.722844 C44.9733448,99.8695746 61.2400291,99.93064 62.6432965,99.8332512 L74.8470137,71.5478609 L93.4511542,114.631347 C86.9763873,112.959155 79.0017858,111.722844 72,111.722844 C40.4836299,111.722844 13.2154243,129.752141 0,156 L37.9059462,156 C46.7941001,147.621142 58.7888088,142.471381 72,142.471381 C85.0916066,142.471381 96.9844566,147.532966 105.847741,155.778111 L105.920233,156 L106.091408,155.997631 C106.092466,155.998421 106.09326,156 106.094054,156 L144,156" id="Fill-1" fill="#19BBE0"></path>
    </g>
</svg>